<svg width="72" height="19" viewBox="0 0 72 19" fill="none" xmlns="http://www.w3.org/2000/svg">
<g filter="url(#filter0_d_17_7671)">
<path d="M6 0L7.996 3.25274L11.7063 4.1459L9.22959 7.04936L9.52671 10.8541L6 9.3958L2.47329 10.8541L2.77041 7.04936L0.293661 4.1459L4.004 3.25274L6 0Z" fill="#FFC833"/>
<path d="M20 0L21.996 3.25274L25.7063 4.1459L23.2296 7.04936L23.5267 10.8541L20 9.3958L16.4733 10.8541L16.7704 7.04936L14.2937 4.1459L18.004 3.25274L20 0Z" fill="#FFC833"/>
<path d="M34 0L35.996 3.25274L39.7063 4.1459L37.2296 7.04936L37.5267 10.8541L34 9.3958L30.4733 10.8541L30.7704 7.04936L28.2937 4.1459L32.004 3.25274L34 0Z" fill="#FFC833"/>
<path d="M48 0L49.996 3.25274L53.7063 4.1459L51.2296 7.04936L51.5267 10.8541L48 9.3958L44.4733 10.8541L44.7704 7.04936L42.2937 4.1459L46.004 3.25274L48 0Z" fill="#FFC833"/>
<path d="M62 0L63.996 3.25274L67.7063 4.1459L65.2296 7.04936L65.5267 10.8541L62 9.3958L58.4733 10.8541L58.7704 7.04936L56.2937 4.1459L60.004 3.25274L62 0Z" fill="#EBF0FF"/>
</g>
<defs>
<filter id="filter0_d_17_7671" x="-4" y="0" width="76" height="20" filterUnits="userSpaceOnUse" color-interpolation-filters="sRGB">
<feFlood flood-opacity="0" result="BackgroundImageFix"/>
<feColorMatrix in="SourceAlpha" type="matrix" values="0 0 0 0 0 0 0 0 0 0 0 0 0 0 0 0 0 0 127 0" result="hardAlpha"/>
<feOffset dy="4"/>
<feGaussianBlur stdDeviation="2"/>
<feComposite in2="hardAlpha" operator="out"/>
<feColorMatrix type="matrix" values="0 0 0 0 0 0 0 0 0 0 0 0 0 0 0 0 0 0 0.25 0"/>
<feBlend mode="normal" in2="BackgroundImageFix" result="effect1_dropShadow_17_7671"/>
<feBlend mode="normal" in="SourceGraphic" in2="effect1_dropShadow_17_7671" result="shape"/>
</filter>
</defs>
</svg>
